<mxfile host="app.diagrams.net" modified="2023-11-03T08:45:41.840Z" agent="Mozilla/5.0 (Windows NT 10.0; Win64; x64) AppleWebKit/537.36 (KHTML, like Gecko) Chrome/119.0.0.0 Safari/537.36" etag="pxyr9ecdlruQY_RLRgba" version="22.0.8" type="device">
  <diagram name="หน้า-1" id="iFsy3pG_sU59HdBs8EDW">
    <mxGraphModel dx="680" dy="680" grid="1" gridSize="10" guides="1" tooltips="1" connect="1" arrows="1" fold="1" page="1" pageScale="1" pageWidth="827" pageHeight="1169" math="0" shadow="0">
      <root>
        <mxCell id="0" />
        <mxCell id="1" parent="0" />
        <mxCell id="zVMesc2j5Os1fC9YenXB-6" value="SSR Page" style="swimlane;whiteSpace=wrap;html=1;" vertex="1" parent="1">
          <mxGeometry x="50" y="50" width="440" height="200" as="geometry" />
        </mxCell>
        <mxCell id="zVMesc2j5Os1fC9YenXB-5" value="Client" style="rounded=0;whiteSpace=wrap;html=1;" vertex="1" parent="zVMesc2j5Os1fC9YenXB-6">
          <mxGeometry x="20" y="40" width="70" height="60" as="geometry" />
        </mxCell>
        <mxCell id="zVMesc2j5Os1fC9YenXB-9" value="Client" style="rounded=0;whiteSpace=wrap;html=1;" vertex="1" parent="zVMesc2j5Os1fC9YenXB-6">
          <mxGeometry x="110" y="40" width="70" height="60" as="geometry" />
        </mxCell>
        <mxCell id="zVMesc2j5Os1fC9YenXB-27" style="edgeStyle=orthogonalEdgeStyle;rounded=0;orthogonalLoop=1;jettySize=auto;html=1;" edge="1" parent="zVMesc2j5Os1fC9YenXB-6" source="zVMesc2j5Os1fC9YenXB-24" target="zVMesc2j5Os1fC9YenXB-25">
          <mxGeometry relative="1" as="geometry" />
        </mxCell>
        <mxCell id="zVMesc2j5Os1fC9YenXB-24" value="" style="shape=cube;whiteSpace=wrap;html=1;boundedLbl=1;backgroundOutline=1;darkOpacity=0.05;darkOpacity2=0.1;" vertex="1" parent="zVMesc2j5Os1fC9YenXB-6">
          <mxGeometry x="62.5" y="140" width="75" height="30" as="geometry" />
        </mxCell>
        <mxCell id="zVMesc2j5Os1fC9YenXB-28" style="edgeStyle=orthogonalEdgeStyle;rounded=0;orthogonalLoop=1;jettySize=auto;html=1;" edge="1" parent="zVMesc2j5Os1fC9YenXB-6" source="zVMesc2j5Os1fC9YenXB-25" target="zVMesc2j5Os1fC9YenXB-26">
          <mxGeometry relative="1" as="geometry" />
        </mxCell>
        <mxCell id="zVMesc2j5Os1fC9YenXB-25" value="JS Function &lt;br&gt;Action" style="shape=trapezoid;perimeter=trapezoidPerimeter;whiteSpace=wrap;html=1;fixedSize=1;" vertex="1" parent="zVMesc2j5Os1fC9YenXB-6">
          <mxGeometry x="180" y="115" width="120" height="60" as="geometry" />
        </mxCell>
        <mxCell id="zVMesc2j5Os1fC9YenXB-26" value="DB" style="shape=cylinder3;whiteSpace=wrap;html=1;boundedLbl=1;backgroundOutline=1;size=15;" vertex="1" parent="zVMesc2j5Os1fC9YenXB-6">
          <mxGeometry x="340" y="105" width="60" height="80" as="geometry" />
        </mxCell>
        <mxCell id="zVMesc2j5Os1fC9YenXB-10" value="Node.js Server" style="swimlane;fontStyle=0;childLayout=stackLayout;horizontal=1;startSize=30;horizontalStack=0;resizeParent=1;resizeParentMax=0;resizeLast=0;collapsible=1;marginBottom=0;whiteSpace=wrap;html=1;" vertex="1" parent="1">
          <mxGeometry x="460" y="340" width="140" height="120" as="geometry" />
        </mxCell>
        <mxCell id="zVMesc2j5Os1fC9YenXB-11" value="Fetch User" style="text;strokeColor=none;fillColor=none;align=left;verticalAlign=middle;spacingLeft=4;spacingRight=4;overflow=hidden;points=[[0,0.5],[1,0.5]];portConstraint=eastwest;rotatable=0;whiteSpace=wrap;html=1;" vertex="1" parent="zVMesc2j5Os1fC9YenXB-10">
          <mxGeometry y="30" width="140" height="30" as="geometry" />
        </mxCell>
        <mxCell id="zVMesc2j5Os1fC9YenXB-12" value="API Endpoint 2" style="text;strokeColor=none;fillColor=none;align=left;verticalAlign=middle;spacingLeft=4;spacingRight=4;overflow=hidden;points=[[0,0.5],[1,0.5]];portConstraint=eastwest;rotatable=0;whiteSpace=wrap;html=1;" vertex="1" parent="zVMesc2j5Os1fC9YenXB-10">
          <mxGeometry y="60" width="140" height="30" as="geometry" />
        </mxCell>
        <mxCell id="zVMesc2j5Os1fC9YenXB-13" value="API Endpoint 3" style="text;strokeColor=none;fillColor=none;align=left;verticalAlign=middle;spacingLeft=4;spacingRight=4;overflow=hidden;points=[[0,0.5],[1,0.5]];portConstraint=eastwest;rotatable=0;whiteSpace=wrap;html=1;" vertex="1" parent="zVMesc2j5Os1fC9YenXB-10">
          <mxGeometry y="90" width="140" height="30" as="geometry" />
        </mxCell>
        <mxCell id="zVMesc2j5Os1fC9YenXB-14" value="Client Side React App" style="swimlane;whiteSpace=wrap;html=1;" vertex="1" parent="1">
          <mxGeometry x="170" y="340" width="200" height="200" as="geometry" />
        </mxCell>
        <mxCell id="zVMesc2j5Os1fC9YenXB-15" value="Client" style="rounded=0;whiteSpace=wrap;html=1;" vertex="1" parent="zVMesc2j5Os1fC9YenXB-14">
          <mxGeometry x="20" y="40" width="70" height="60" as="geometry" />
        </mxCell>
        <mxCell id="zVMesc2j5Os1fC9YenXB-16" value="Client" style="rounded=0;whiteSpace=wrap;html=1;" vertex="1" parent="zVMesc2j5Os1fC9YenXB-14">
          <mxGeometry x="110" y="40" width="70" height="60" as="geometry" />
        </mxCell>
        <mxCell id="zVMesc2j5Os1fC9YenXB-18" value="" style="endArrow=classic;html=1;rounded=0;exitX=1;exitY=0;exitDx=0;exitDy=0;entryX=0;entryY=0.5;entryDx=0;entryDy=0;" edge="1" parent="1" source="zVMesc2j5Os1fC9YenXB-14" target="zVMesc2j5Os1fC9YenXB-11">
          <mxGeometry width="50" height="50" relative="1" as="geometry">
            <mxPoint x="410" y="450" as="sourcePoint" />
            <mxPoint x="460" y="400" as="targetPoint" />
          </mxGeometry>
        </mxCell>
        <mxCell id="zVMesc2j5Os1fC9YenXB-20" value="DB" style="shape=cylinder3;whiteSpace=wrap;html=1;boundedLbl=1;backgroundOutline=1;size=15;" vertex="1" parent="1">
          <mxGeometry x="680" y="360" width="60" height="80" as="geometry" />
        </mxCell>
        <mxCell id="zVMesc2j5Os1fC9YenXB-21" style="rounded=0;orthogonalLoop=1;jettySize=auto;html=1;exitX=1;exitY=0.5;exitDx=0;exitDy=0;" edge="1" parent="1" source="zVMesc2j5Os1fC9YenXB-11" target="zVMesc2j5Os1fC9YenXB-20">
          <mxGeometry relative="1" as="geometry" />
        </mxCell>
        <mxCell id="zVMesc2j5Os1fC9YenXB-22" style="rounded=0;orthogonalLoop=1;jettySize=auto;html=1;entryX=1;entryY=0.5;entryDx=0;entryDy=0;exitX=0;exitY=0.5;exitDx=0;exitDy=0;" edge="1" parent="1" source="zVMesc2j5Os1fC9YenXB-11" target="zVMesc2j5Os1fC9YenXB-14">
          <mxGeometry relative="1" as="geometry">
            <mxPoint x="370" y="380" as="targetPoint" />
          </mxGeometry>
        </mxCell>
      </root>
    </mxGraphModel>
  </diagram>
</mxfile>
